<mxfile host="app.diagrams.net" agent="Mozilla/5.0 (Windows NT 10.0; Win64; x64) AppleWebKit/537.36 (KHTML, like Gecko) Chrome/137.0.0.0 Safari/537.36" version="27.1.6">
  <diagram id="D-fAF4G_w43zIAEk46Fp" name="Page-1">
    <mxGraphModel dx="1713" dy="913" grid="1" gridSize="10" guides="1" tooltips="1" connect="1" arrows="1" fold="1" page="1" pageScale="1" pageWidth="827" pageHeight="1169" math="0" shadow="0">
      <root>
        <mxCell id="0" />
        <mxCell id="1" parent="0" />
        <mxCell id="5hqN2OxiWCrJSBsG6SJo-336" value="" style="shape=note;whiteSpace=wrap;html=1;backgroundOutline=1;fontColor=#000000;darkOpacity=0.05;fillColor=none;strokeColor=light-dark(#000000,#00FF00);fillStyle=solid;direction=west;gradientDirection=north;gradientColor=#FFF2A1;shadow=1;size=0;pointerEvents=1;dashed=1;strokeWidth=3;" vertex="1" parent="1">
          <mxGeometry x="1410" y="160" width="1030" height="320" as="geometry" />
        </mxCell>
        <mxCell id="5hqN2OxiWCrJSBsG6SJo-372" value="" style="shape=note;whiteSpace=wrap;html=1;backgroundOutline=1;fontColor=#000000;darkOpacity=0.05;fillColor=none;strokeColor=light-dark(#000000,#FF8000);fillStyle=solid;direction=west;gradientDirection=north;gradientColor=#FFF2A1;shadow=1;size=0;pointerEvents=1;dashed=1;strokeWidth=3;" vertex="1" parent="1">
          <mxGeometry x="1641.13" y="240" width="208.87" height="143.5" as="geometry" />
        </mxCell>
        <mxCell id="5hqN2OxiWCrJSBsG6SJo-5" value="" style="shape=note;whiteSpace=wrap;html=1;backgroundOutline=1;fontColor=#000000;darkOpacity=0.05;fillColor=none;strokeColor=light-dark(#000000,#00FF00);fillStyle=solid;direction=west;gradientDirection=north;gradientColor=#FFF2A1;shadow=1;size=0;pointerEvents=1;dashed=1;strokeWidth=3;" vertex="1" parent="1">
          <mxGeometry x="760" y="160" width="560" height="320" as="geometry" />
        </mxCell>
        <mxCell id="5hqN2OxiWCrJSBsG6SJo-170" value="" style="whiteSpace=wrap;html=1;fillColor=none;strokeColor=light-dark(#000000,#973966);dashed=1;strokeWidth=3;" vertex="1" parent="1">
          <mxGeometry x="945" y="200" width="190" height="240" as="geometry" />
        </mxCell>
        <mxCell id="5hqN2OxiWCrJSBsG6SJo-2" value="" style="shape=note;whiteSpace=wrap;html=1;backgroundOutline=1;fontColor=#000000;darkOpacity=0.05;fillColor=none;strokeColor=light-dark(#000000,#00FF00);fillStyle=solid;direction=west;gradientDirection=north;gradientColor=#FFF2A1;shadow=1;size=0;pointerEvents=1;dashed=1;strokeWidth=3;" vertex="1" parent="1">
          <mxGeometry x="120" y="160" width="560" height="320" as="geometry" />
        </mxCell>
        <mxCell id="qwX4EpRMQdbo-0Ij-SmE-1" value="VPC" style="sketch=0;outlineConnect=0;gradientColor=none;html=1;whiteSpace=wrap;fontSize=12;fontStyle=0;shape=mxgraph.aws4.group;grIcon=mxgraph.aws4.group_vpc;strokeColor=#879196;fillColor=none;verticalAlign=top;align=left;spacingLeft=30;fontColor=#879196;dashed=0;" parent="1" vertex="1">
          <mxGeometry x="200" y="200" width="440" height="240" as="geometry" />
        </mxCell>
        <mxCell id="qwX4EpRMQdbo-0Ij-SmE-2" value="Subnet" style="sketch=0;outlineConnect=0;gradientColor=none;html=1;whiteSpace=wrap;fontSize=12;fontStyle=0;shape=mxgraph.aws4.group;grIcon=mxgraph.aws4.group_subnet;strokeColor=#879196;fillColor=none;verticalAlign=top;align=left;spacingLeft=30;fontColor=#879196;dashed=0;" parent="1" vertex="1">
          <mxGeometry x="240" y="240" width="360" height="160" as="geometry" />
        </mxCell>
        <mxCell id="qwX4EpRMQdbo-0Ij-SmE-3" value="CIDR Block range: 192.168.0.0/16" style="text;html=1;align=center;verticalAlign=middle;resizable=0;points=[];autosize=1;strokeColor=none;fillColor=none;" parent="1" vertex="1">
          <mxGeometry x="260" y="200" width="210" height="30" as="geometry" />
        </mxCell>
        <mxCell id="qwX4EpRMQdbo-0Ij-SmE-4" value="CIDR Block range: 192.168.1.0/24" style="text;html=1;align=center;verticalAlign=middle;resizable=0;points=[];autosize=1;strokeColor=none;fillColor=none;" parent="1" vertex="1">
          <mxGeometry x="320" y="240" width="210" height="30" as="geometry" />
        </mxCell>
        <mxCell id="qwX4EpRMQdbo-0Ij-SmE-6" value="HTTP port 80 anywhere 0.0.0.0&lt;div&gt;HTTPS port 443 anywhere 0.0.0.0&lt;/div&gt;&lt;div&gt;SSH port 22 anywhere 0.0.0.0&lt;/div&gt;" style="container=1;collapsible=0;expand=0;recursiveResize=0;html=1;whiteSpace=wrap;strokeColor=#FA4D56;fillColor=none;dashed=1;dashPattern=1 3;strokeWidth=2" parent="1" vertex="1">
          <mxGeometry x="242" y="268" width="210" height="120" as="geometry" />
        </mxCell>
        <mxCell id="qwX4EpRMQdbo-0Ij-SmE-7" value="Security Group" style="shape=rect;fillColor=none;aspect=fixed;resizable=0;labelPosition=right;verticalLabelPosition=middle;align=left;verticalAlign=middle;strokeColor=none;part=1;spacingLeft=5;fontSize=14;" parent="qwX4EpRMQdbo-0Ij-SmE-6" vertex="1">
          <mxGeometry width="48" height="48" relative="1" as="geometry" />
        </mxCell>
        <mxCell id="qwX4EpRMQdbo-0Ij-SmE-8" value="" style="fillColor=#FA4D56;shape=mxgraph.ibm_cloud.group--security;strokeColor=none;dashed=0;outlineConnect=0;html=1;labelPosition=center;verticalLabelPosition=bottom;verticalAlign=top;part=1;movable=0;resizable=0;rotatable=0;" parent="qwX4EpRMQdbo-0Ij-SmE-7" vertex="1">
          <mxGeometry width="24" height="24" relative="1" as="geometry">
            <mxPoint x="12" y="12" as="offset" />
          </mxGeometry>
        </mxCell>
        <mxCell id="qwX4EpRMQdbo-0Ij-SmE-9" value="" style="sketch=0;points=[[0,0,0],[0.25,0,0],[0.5,0,0],[0.75,0,0],[1,0,0],[0,1,0],[0.25,1,0],[0.5,1,0],[0.75,1,0],[1,1,0],[0,0.25,0],[0,0.5,0],[0,0.75,0],[1,0.25,0],[1,0.5,0],[1,0.75,0]];outlineConnect=0;fontColor=#232F3E;fillColor=#ED7100;strokeColor=#ffffff;dashed=0;verticalLabelPosition=bottom;verticalAlign=top;align=center;html=1;fontSize=12;fontStyle=0;aspect=fixed;shape=mxgraph.aws4.resourceIcon;resIcon=mxgraph.aws4.ec2;" parent="1" vertex="1">
          <mxGeometry x="500" y="270" width="78" height="78" as="geometry" />
        </mxCell>
        <mxCell id="qwX4EpRMQdbo-0Ij-SmE-10" value="&lt;font style=&quot;font-size: 20px;&quot;&gt;EC2&lt;/font&gt;" style="text;html=1;align=center;verticalAlign=middle;resizable=0;points=[];autosize=1;strokeColor=none;fillColor=none;" parent="1" vertex="1">
          <mxGeometry x="509" y="348" width="60" height="40" as="geometry" />
        </mxCell>
        <mxCell id="qwX4EpRMQdbo-0Ij-SmE-11" value="" style="sketch=0;outlineConnect=0;fontColor=#232F3E;gradientColor=none;fillColor=#8C4FFF;strokeColor=none;dashed=0;verticalLabelPosition=bottom;verticalAlign=top;align=center;html=1;fontSize=12;fontStyle=0;aspect=fixed;pointerEvents=1;shape=mxgraph.aws4.internet_gateway;" parent="1" vertex="1">
          <mxGeometry x="620" y="220" width="38" height="38" as="geometry" />
        </mxCell>
        <mxCell id="qwX4EpRMQdbo-0Ij-SmE-12" value="&lt;font style=&quot;font-size: 15px;&quot;&gt;Internet&amp;nbsp;&lt;/font&gt;&lt;div&gt;&lt;font style=&quot;font-size: 15px;&quot;&gt;Gateway&lt;/font&gt;&lt;/div&gt;" style="text;html=1;align=center;verticalAlign=middle;resizable=0;points=[];autosize=1;strokeColor=none;fillColor=none;" parent="1" vertex="1">
          <mxGeometry x="600" y="253" width="80" height="50" as="geometry" />
        </mxCell>
        <mxCell id="5hqN2OxiWCrJSBsG6SJo-3" value="&lt;font style=&quot;font-size: 18px;&quot;&gt;Job 1: Terraform&lt;/font&gt;" style="text;html=1;align=center;verticalAlign=middle;resizable=0;points=[];autosize=1;strokeColor=none;fillColor=none;" vertex="1" parent="1">
          <mxGeometry x="120" y="160" width="150" height="40" as="geometry" />
        </mxCell>
        <mxCell id="5hqN2OxiWCrJSBsG6SJo-4" value="&lt;font style=&quot;font-size: 18px;&quot;&gt;Job 2: Copy files to EC2&lt;/font&gt;" style="text;html=1;align=center;verticalAlign=middle;resizable=0;points=[];autosize=1;strokeColor=none;fillColor=none;" vertex="1" parent="1">
          <mxGeometry x="760" y="160" width="220" height="40" as="geometry" />
        </mxCell>
        <mxCell id="5hqN2OxiWCrJSBsG6SJo-332" style="edgeStyle=orthogonalEdgeStyle;rounded=0;orthogonalLoop=1;jettySize=auto;html=1;" edge="1" parent="1" source="5hqN2OxiWCrJSBsG6SJo-158" target="5hqN2OxiWCrJSBsG6SJo-170">
          <mxGeometry relative="1" as="geometry" />
        </mxCell>
        <mxCell id="5hqN2OxiWCrJSBsG6SJo-334" value="Tar files" style="edgeLabel;html=1;align=center;verticalAlign=middle;resizable=0;points=[];" vertex="1" connectable="0" parent="5hqN2OxiWCrJSBsG6SJo-332">
          <mxGeometry x="-0.1551" y="-3" relative="1" as="geometry">
            <mxPoint y="-11" as="offset" />
          </mxGeometry>
        </mxCell>
        <mxCell id="5hqN2OxiWCrJSBsG6SJo-158" value="&lt;font style=&quot;font-size: 16px;&quot;&gt;GitHub Repo&lt;/font&gt;" style="dashed=0;outlineConnect=0;html=1;align=center;labelPosition=center;verticalLabelPosition=top;verticalAlign=bottom;shape=mxgraph.weblogos.github;fontSize=18;" vertex="1" parent="1">
          <mxGeometry x="790" y="260" width="75" height="75" as="geometry" />
        </mxCell>
        <mxCell id="5hqN2OxiWCrJSBsG6SJo-159" value="" style="group;aspect=fixed;" vertex="1" connectable="0" parent="1">
          <mxGeometry x="1698.87" y="253.5" width="92.26" height="82" as="geometry" />
        </mxCell>
        <mxCell id="5hqN2OxiWCrJSBsG6SJo-160" value="" style="shape=note;whiteSpace=wrap;html=1;backgroundOutline=1;fontColor=#000000;darkOpacity=0.05;fillColor=light-dark(#FFFFFF,#FFFFFF);strokeColor=none;fillStyle=solid;direction=west;gradientDirection=north;gradientColor=none;shadow=1;size=0;pointerEvents=1;aspect=fixed;" vertex="1" parent="5hqN2OxiWCrJSBsG6SJo-159">
          <mxGeometry width="92.25576598537408" height="82" as="geometry" />
        </mxCell>
        <mxCell id="5hqN2OxiWCrJSBsG6SJo-161" value="" style="image;sketch=0;aspect=fixed;html=1;points=[];align=center;fontSize=12;image=img/lib/mscae/Docker.svg;" vertex="1" parent="5hqN2OxiWCrJSBsG6SJo-159">
          <mxGeometry x="7.688333333333683" y="9.486967935495967" width="76.87980498781172" height="63.04144009000562" as="geometry" />
        </mxCell>
        <mxCell id="5hqN2OxiWCrJSBsG6SJo-163" style="edgeStyle=orthogonalEdgeStyle;rounded=0;orthogonalLoop=1;jettySize=auto;html=1;exitX=1;exitY=0.5;exitDx=0;exitDy=0;" edge="1" source="5hqN2OxiWCrJSBsG6SJo-165" target="5hqN2OxiWCrJSBsG6SJo-166" parent="1">
          <mxGeometry relative="1" as="geometry">
            <mxPoint x="244" y="67.52631578947364" as="sourcePoint" />
            <mxPoint x="329" y="69.5" as="targetPoint" />
          </mxGeometry>
        </mxCell>
        <mxCell id="5hqN2OxiWCrJSBsG6SJo-164" value="Push Code to&lt;div&gt;GitHub main Branch&lt;/div&gt;" style="edgeLabel;html=1;align=center;verticalAlign=middle;resizable=0;points=[];labelBackgroundColor=default;" vertex="1" connectable="0" parent="5hqN2OxiWCrJSBsG6SJo-163">
          <mxGeometry x="-0.1029" relative="1" as="geometry">
            <mxPoint y="-17" as="offset" />
          </mxGeometry>
        </mxCell>
        <mxCell id="5hqN2OxiWCrJSBsG6SJo-165" value="VS Code" style="shape=image;verticalLabelPosition=top;labelBackgroundColor=none;verticalAlign=bottom;aspect=fixed;imageAspect=0;image=https://raw.githubusercontent.com/dhanishgajjar/vscode-icons/master/png/default_dark.png;fontSize=14;labelPosition=center;align=center;" vertex="1" parent="1">
          <mxGeometry x="169" y="30" width="75" height="75" as="geometry" />
        </mxCell>
        <mxCell id="5hqN2OxiWCrJSBsG6SJo-166" value="GitHub" style="dashed=0;outlineConnect=0;html=1;align=center;labelPosition=center;verticalLabelPosition=top;verticalAlign=bottom;shape=mxgraph.weblogos.github;fontSize=18;" vertex="1" parent="1">
          <mxGeometry x="362.5" y="30" width="75" height="75" as="geometry" />
        </mxCell>
        <mxCell id="5hqN2OxiWCrJSBsG6SJo-167" style="edgeStyle=orthogonalEdgeStyle;rounded=0;orthogonalLoop=1;jettySize=auto;html=1;entryX=0.5;entryY=1;entryDx=0;entryDy=0;entryPerimeter=0;strokeWidth=3;" edge="1" parent="1" source="5hqN2OxiWCrJSBsG6SJo-166" target="5hqN2OxiWCrJSBsG6SJo-2">
          <mxGeometry relative="1" as="geometry" />
        </mxCell>
        <mxCell id="5hqN2OxiWCrJSBsG6SJo-171" value="&lt;font style=&quot;font-size: 20px;&quot;&gt;EC2&lt;/font&gt;" style="text;html=1;align=center;verticalAlign=middle;resizable=0;points=[];autosize=1;strokeColor=none;fillColor=none;" vertex="1" parent="1">
          <mxGeometry x="1239" y="328" width="60" height="40" as="geometry" />
        </mxCell>
        <mxCell id="5hqN2OxiWCrJSBsG6SJo-172" value="" style="sketch=0;points=[[0,0,0],[0.25,0,0],[0.5,0,0],[0.75,0,0],[1,0,0],[0,1,0],[0.25,1,0],[0.5,1,0],[0.75,1,0],[1,1,0],[0,0.25,0],[0,0.5,0],[0,0.75,0],[1,0.25,0],[1,0.5,0],[1,0.75,0]];outlineConnect=0;fontColor=#232F3E;fillColor=#ED7100;strokeColor=#ffffff;dashed=0;verticalLabelPosition=bottom;verticalAlign=top;align=center;html=1;fontSize=12;fontStyle=0;aspect=fixed;shape=mxgraph.aws4.resourceIcon;resIcon=mxgraph.aws4.ec2;" vertex="1" parent="1">
          <mxGeometry x="1230" y="250" width="78" height="78" as="geometry" />
        </mxCell>
        <mxCell id="5hqN2OxiWCrJSBsG6SJo-175" value="&lt;font style=&quot;font-size: 15px;&quot;&gt;docker-compose.yaml&lt;/font&gt;" style="whiteSpace=wrap;html=1;shape=mxgraph.basic.document;fillColor=none;" vertex="1" parent="1">
          <mxGeometry x="973" y="250" width="120" height="81.05" as="geometry" />
        </mxCell>
        <mxCell id="5hqN2OxiWCrJSBsG6SJo-177" value="&lt;font style=&quot;font-size: 15px;&quot;&gt;deploy_files.tar.gz&lt;/font&gt;" style="text;html=1;align=center;verticalAlign=middle;resizable=0;points=[];autosize=1;strokeColor=none;fillColor=none;" vertex="1" parent="1">
          <mxGeometry x="963" y="203.95000000000005" width="140" height="30" as="geometry" />
        </mxCell>
        <mxCell id="5hqN2OxiWCrJSBsG6SJo-178" value="Nginx" style="sketch=0;pointerEvents=1;shadow=0;dashed=0;html=1;strokeColor=none;labelPosition=center;verticalLabelPosition=bottom;verticalAlign=top;outlineConnect=0;align=center;shape=mxgraph.office.concepts.folder;fillColor=#2072B8;" vertex="1" parent="1">
          <mxGeometry x="993" y="350" width="80" height="60" as="geometry" />
        </mxCell>
        <mxCell id="5hqN2OxiWCrJSBsG6SJo-333" style="edgeStyle=orthogonalEdgeStyle;rounded=0;orthogonalLoop=1;jettySize=auto;html=1;exitX=1;exitY=0.5;exitDx=0;exitDy=0;entryX=0;entryY=0.5;entryDx=0;entryDy=0;entryPerimeter=0;" edge="1" parent="1" source="5hqN2OxiWCrJSBsG6SJo-170" target="5hqN2OxiWCrJSBsG6SJo-172">
          <mxGeometry relative="1" as="geometry" />
        </mxCell>
        <mxCell id="5hqN2OxiWCrJSBsG6SJo-335" value="Copy files to&amp;nbsp;&lt;div&gt;destination&lt;/div&gt;" style="edgeLabel;html=1;align=center;verticalAlign=middle;resizable=0;points=[];" vertex="1" connectable="0" parent="5hqN2OxiWCrJSBsG6SJo-333">
          <mxGeometry x="0.2175" y="2" relative="1" as="geometry">
            <mxPoint x="1" y="-20" as="offset" />
          </mxGeometry>
        </mxCell>
        <mxCell id="5hqN2OxiWCrJSBsG6SJo-338" value="&lt;font style=&quot;font-size: 18px;&quot;&gt;Job 3: Deploy Docker Ghost&lt;/font&gt;" style="text;html=1;align=center;verticalAlign=middle;resizable=0;points=[];autosize=1;strokeColor=none;fillColor=none;" vertex="1" parent="1">
          <mxGeometry x="1410" y="160" width="250" height="40" as="geometry" />
        </mxCell>
        <mxCell id="5hqN2OxiWCrJSBsG6SJo-350" style="edgeStyle=orthogonalEdgeStyle;rounded=0;orthogonalLoop=1;jettySize=auto;html=1;entryX=0;entryY=0;entryDx=560;entryDy=160;entryPerimeter=0;strokeWidth=3;" edge="1" parent="1" source="5hqN2OxiWCrJSBsG6SJo-2" target="5hqN2OxiWCrJSBsG6SJo-5">
          <mxGeometry relative="1" as="geometry" />
        </mxCell>
        <mxCell id="5hqN2OxiWCrJSBsG6SJo-352" style="edgeStyle=orthogonalEdgeStyle;rounded=0;orthogonalLoop=1;jettySize=auto;html=1;strokeWidth=3;entryX=0;entryY=0;entryDx=940;entryDy=160;entryPerimeter=0;" edge="1" parent="1" source="5hqN2OxiWCrJSBsG6SJo-5" target="5hqN2OxiWCrJSBsG6SJo-336">
          <mxGeometry relative="1" as="geometry">
            <mxPoint x="1380" y="320" as="targetPoint" />
          </mxGeometry>
        </mxCell>
        <mxCell id="5hqN2OxiWCrJSBsG6SJo-355" value="&lt;font style=&quot;font-size: 15px;&quot;&gt;docker-compose.yaml&lt;/font&gt;" style="whiteSpace=wrap;html=1;shape=mxgraph.basic.document;fillColor=none;" vertex="1" parent="1">
          <mxGeometry x="1430" y="215.52" width="120" height="81.05" as="geometry" />
        </mxCell>
        <mxCell id="5hqN2OxiWCrJSBsG6SJo-357" value="Nginx" style="sketch=0;pointerEvents=1;shadow=0;dashed=0;html=1;strokeColor=none;labelPosition=center;verticalLabelPosition=bottom;verticalAlign=top;outlineConnect=0;align=center;shape=mxgraph.office.concepts.folder;fillColor=#2072B8;" vertex="1" parent="1">
          <mxGeometry x="1450" y="308" width="60" height="47" as="geometry" />
        </mxCell>
        <mxCell id="5hqN2OxiWCrJSBsG6SJo-364" value="Certbot" style="sketch=0;pointerEvents=1;shadow=0;dashed=0;html=1;strokeColor=none;labelPosition=center;verticalLabelPosition=bottom;verticalAlign=top;outlineConnect=0;align=center;shape=mxgraph.office.concepts.folder;fillColor=#2072B8;" vertex="1" parent="1">
          <mxGeometry x="1450" y="393" width="60" height="47" as="geometry" />
        </mxCell>
        <mxCell id="5hqN2OxiWCrJSBsG6SJo-368" value="Run command:&lt;div&gt;docker compose up -d nginx ghost&lt;/div&gt;" style="text;html=1;align=center;verticalAlign=middle;resizable=0;points=[];autosize=1;strokeColor=none;fillColor=none;" vertex="1" parent="1">
          <mxGeometry x="1640" y="338.5" width="210" height="40" as="geometry" />
        </mxCell>
        <mxCell id="5hqN2OxiWCrJSBsG6SJo-371" value="" style="shape=note;whiteSpace=wrap;html=1;backgroundOutline=1;fontColor=#000000;darkOpacity=0.05;fillColor=none;strokeColor=light-dark(#000000,#FF8000);fillStyle=solid;direction=west;gradientDirection=north;gradientColor=#FFF2A1;shadow=1;size=0;pointerEvents=1;dashed=1;strokeWidth=3;" vertex="1" parent="1">
          <mxGeometry x="1420" y="200" width="140" height="270" as="geometry" />
        </mxCell>
        <mxCell id="5hqN2OxiWCrJSBsG6SJo-373" style="edgeStyle=orthogonalEdgeStyle;rounded=0;orthogonalLoop=1;jettySize=auto;html=1;exitX=0;exitY=0.5;exitDx=0;exitDy=0;exitPerimeter=0;entryX=0;entryY=0;entryDx=208.87;entryDy=71.75;entryPerimeter=0;" edge="1" parent="1" source="5hqN2OxiWCrJSBsG6SJo-371" target="5hqN2OxiWCrJSBsG6SJo-372">
          <mxGeometry relative="1" as="geometry" />
        </mxCell>
        <mxCell id="5hqN2OxiWCrJSBsG6SJo-374" value="Run&amp;nbsp;&lt;div&gt;Command&lt;/div&gt;" style="edgeLabel;html=1;align=center;verticalAlign=middle;resizable=0;points=[];" vertex="1" connectable="0" parent="5hqN2OxiWCrJSBsG6SJo-373">
          <mxGeometry x="-0.0301" relative="1" as="geometry">
            <mxPoint y="-1" as="offset" />
          </mxGeometry>
        </mxCell>
        <mxCell id="5hqN2OxiWCrJSBsG6SJo-375" value="" style="shape=note;whiteSpace=wrap;html=1;backgroundOutline=1;fontColor=#000000;darkOpacity=0.05;fillColor=none;strokeColor=light-dark(#000000,#FF8000);fillStyle=solid;direction=west;gradientDirection=north;gradientColor=#FFF2A1;shadow=1;size=0;pointerEvents=1;dashed=1;strokeWidth=3;" vertex="1" parent="1">
          <mxGeometry x="1920" y="240" width="208.87" height="143.5" as="geometry" />
        </mxCell>
        <mxCell id="5hqN2OxiWCrJSBsG6SJo-376" value="" style="group;aspect=fixed;" vertex="1" connectable="0" parent="1">
          <mxGeometry x="1977.7399999999998" y="253.5" width="92.26" height="82" as="geometry" />
        </mxCell>
        <mxCell id="5hqN2OxiWCrJSBsG6SJo-377" value="" style="shape=note;whiteSpace=wrap;html=1;backgroundOutline=1;fontColor=#000000;darkOpacity=0.05;fillColor=light-dark(#FFFFFF,#FFFFFF);strokeColor=none;fillStyle=solid;direction=west;gradientDirection=north;gradientColor=none;shadow=1;size=0;pointerEvents=1;aspect=fixed;" vertex="1" parent="5hqN2OxiWCrJSBsG6SJo-376">
          <mxGeometry width="92.25576598537408" height="82" as="geometry" />
        </mxCell>
        <mxCell id="5hqN2OxiWCrJSBsG6SJo-378" value="" style="image;sketch=0;aspect=fixed;html=1;points=[];align=center;fontSize=12;image=img/lib/mscae/Docker.svg;" vertex="1" parent="5hqN2OxiWCrJSBsG6SJo-376">
          <mxGeometry x="7.688333333333683" y="9.486967935495967" width="76.87980498781172" height="63.04144009000562" as="geometry" />
        </mxCell>
        <mxCell id="5hqN2OxiWCrJSBsG6SJo-379" value="Run command:&lt;div&gt;docker compose run --rm certbot&lt;/div&gt;" style="text;html=1;align=center;verticalAlign=middle;resizable=0;points=[];autosize=1;strokeColor=none;fillColor=none;" vertex="1" parent="1">
          <mxGeometry x="1923.87" y="338.5" width="200" height="40" as="geometry" />
        </mxCell>
        <mxCell id="5hqN2OxiWCrJSBsG6SJo-380" value="" style="shape=note;whiteSpace=wrap;html=1;backgroundOutline=1;fontColor=#000000;darkOpacity=0.05;fillColor=none;strokeColor=light-dark(#000000,#FF8000);fillStyle=solid;direction=west;gradientDirection=north;gradientColor=#FFF2A1;shadow=1;size=0;pointerEvents=1;dashed=1;strokeWidth=3;" vertex="1" parent="1">
          <mxGeometry x="2200" y="240" width="208.87" height="143.5" as="geometry" />
        </mxCell>
        <mxCell id="5hqN2OxiWCrJSBsG6SJo-381" value="" style="group;aspect=fixed;" vertex="1" connectable="0" parent="1">
          <mxGeometry x="2257.74" y="253.5" width="92.26" height="82" as="geometry" />
        </mxCell>
        <mxCell id="5hqN2OxiWCrJSBsG6SJo-382" value="" style="shape=note;whiteSpace=wrap;html=1;backgroundOutline=1;fontColor=#000000;darkOpacity=0.05;fillColor=light-dark(#FFFFFF,#FFFFFF);strokeColor=none;fillStyle=solid;direction=west;gradientDirection=north;gradientColor=none;shadow=1;size=0;pointerEvents=1;aspect=fixed;" vertex="1" parent="5hqN2OxiWCrJSBsG6SJo-381">
          <mxGeometry width="92.25576598537408" height="82" as="geometry" />
        </mxCell>
        <mxCell id="5hqN2OxiWCrJSBsG6SJo-383" value="" style="image;sketch=0;aspect=fixed;html=1;points=[];align=center;fontSize=12;image=img/lib/mscae/Docker.svg;" vertex="1" parent="5hqN2OxiWCrJSBsG6SJo-381">
          <mxGeometry x="7.688333333333683" y="9.486967935495967" width="76.87980498781172" height="63.04144009000562" as="geometry" />
        </mxCell>
        <mxCell id="5hqN2OxiWCrJSBsG6SJo-384" value="Run command:&lt;div&gt;docker compose restart&lt;/div&gt;" style="text;html=1;align=center;verticalAlign=middle;resizable=0;points=[];autosize=1;strokeColor=none;fillColor=none;" vertex="1" parent="1">
          <mxGeometry x="2228.87" y="338.5" width="150" height="40" as="geometry" />
        </mxCell>
        <mxCell id="5hqN2OxiWCrJSBsG6SJo-385" style="edgeStyle=orthogonalEdgeStyle;rounded=0;orthogonalLoop=1;jettySize=auto;html=1;exitX=0;exitY=0.5;exitDx=0;exitDy=0;exitPerimeter=0;entryX=0;entryY=0;entryDx=208.87;entryDy=71.75;entryPerimeter=0;" edge="1" parent="1" source="5hqN2OxiWCrJSBsG6SJo-372" target="5hqN2OxiWCrJSBsG6SJo-375">
          <mxGeometry relative="1" as="geometry" />
        </mxCell>
        <mxCell id="5hqN2OxiWCrJSBsG6SJo-386" value="Run&lt;div&gt;Command&lt;/div&gt;" style="edgeLabel;html=1;align=center;verticalAlign=middle;resizable=0;points=[];" vertex="1" connectable="0" parent="5hqN2OxiWCrJSBsG6SJo-385">
          <mxGeometry x="-0.0057" y="2" relative="1" as="geometry">
            <mxPoint y="-12" as="offset" />
          </mxGeometry>
        </mxCell>
        <mxCell id="5hqN2OxiWCrJSBsG6SJo-387" style="edgeStyle=orthogonalEdgeStyle;rounded=0;orthogonalLoop=1;jettySize=auto;html=1;exitX=0;exitY=0.5;exitDx=0;exitDy=0;exitPerimeter=0;entryX=0;entryY=0;entryDx=208.87;entryDy=71.75;entryPerimeter=0;" edge="1" parent="1" source="5hqN2OxiWCrJSBsG6SJo-375" target="5hqN2OxiWCrJSBsG6SJo-380">
          <mxGeometry relative="1" as="geometry" />
        </mxCell>
        <mxCell id="5hqN2OxiWCrJSBsG6SJo-388" value="Run&amp;nbsp;&lt;div&gt;Command&lt;/div&gt;" style="edgeLabel;html=1;align=center;verticalAlign=middle;resizable=0;points=[];" vertex="1" connectable="0" parent="5hqN2OxiWCrJSBsG6SJo-387">
          <mxGeometry x="-0.1997" relative="1" as="geometry">
            <mxPoint x="3" y="-14" as="offset" />
          </mxGeometry>
        </mxCell>
      </root>
    </mxGraphModel>
  </diagram>
</mxfile>
